ffmpeg started on 2026-01-19 at 14:49:02
Report written to "D:\Convert\FFMetrics\reports\ssim_report-6.txt"
Log level: 32
Command line:
ffmpeg -hide_banner -nostdin -r 24000/1001 -i "F:\\Convert\\files\\[DC] Make Heroine ga Oosugiru - 07_Telegram_HEVC(183).mkv" -r 24000/1001 -i "F:\\Convert\\files\\[DC] Make Heroine ga Oosugiru - 07_Telegram.mp4" -lavfi "[0:v]settb=AVTB,setpts=PTS-STARTPTS,format=pix_fmts=yuv420p10le,fps=24000/1001,scale=1920:1080:flags=lanczos:param0=3:out_range=limited:out_color_matrix=bt709:out_chroma_loc=left,setsar=1/1,setdar=(1920/1080)*(1/1),colorspace=format=yuv420p10:range=tv:primaries=bt709:trc=bt709:space=bt709:fast=0[main];[1:v]settb=AVTB,setpts=PTS-STARTPTS,format=pix_fmts=yuv420p,fps=24000/1001,scale=1920:1080:flags=lanczos:param0=3:out_range=limited:out_color_matrix=bt709:out_chroma_loc=left,setsar=1.000,setdar=1.778,colorspace=format=yuv420p:range=tv:primaries=bt709:trc=bt709:space=bt709:fast=0[ref];[main][ref]ssim=eof_action=endall:stats_file='D\\:/Convert/FFMetrics/logs/ssim_logfile-6.txt'" -f null -
Input #0, matroska,webm, from 'F:\Convert\files\[DC] Make Heroine ga Oosugiru - 07_Telegram_HEVC(183).mkv':
  Metadata:
    COMPATIBLE_BRANDS: isomiso2avc1mp41
    MAJOR_BRAND     : isom
    MINOR_VERSION   : 512
    ENCODER         : Lavf61.7.100
  Duration: 00:24:06.79, start: -0.021000, bitrate: 1000 kb/s
  Stream #0:0: Video: hevc (Main 10), yuv420p10le(tv, bt709, progressive), 1920x1080 [SAR 1:1 DAR 16:9], 23.98 fps, 23.98 tbr, 1k tbn (default)
      Metadata:
        HANDLER_NAME    : VideoHandler
        VENDOR_ID       : [0][0][0][0]
        ENCODER         : Lavc61.19.100 libx265
        BPS             : 803309
        DURATION        : 00:24:06.569708333
        NUMBER_OF_FRAMES: 34683
        NUMBER_OF_BYTES : 145255247
        _STATISTICS_WRITING_APP: mkvpropedit v94.0 ('Initiate') 64-bit
        _STATISTICS_WRITING_DATE_UTC: 2026-01-19 10:08:42
        _STATISTICS_TAGS: BPS DURATION NUMBER_OF_FRAMES NUMBER_OF_BYTES
  Stream #0:1: Audio: aac (LC), 48000 Hz, stereo, fltp (default)
      Metadata:
        HANDLER_NAME    : SoundHandler
        VENDOR_ID       : [0][0][0][0]
        ENCODER         : Lavc61.19.100 aac
        BPS             : 193194
        DURATION        : 00:24:06.784000000
        NUMBER_OF_FRAMES: 67819
        NUMBER_OF_BYTES : 34938755
        _STATISTICS_WRITING_APP: mkvpropedit v94.0 ('Initiate') 64-bit
        _STATISTICS_WRITING_DATE_UTC: 2026-01-19 10:08:42
        _STATISTICS_TAGS: BPS DURATION NUMBER_OF_FRAMES NUMBER_OF_BYTES
Input #1, mov,mp4,m4a,3gp,3g2,mj2, from 'F:\Convert\files\[DC] Make Heroine ga Oosugiru - 07_Telegram.mp4':
  Metadata:
    major_brand     : isom
    minor_version   : 512
    compatible_brands: isomiso2avc1mp41
    encoder         : Lavf60.16.100
  Duration: 00:24:06.74, start: 0.000000, bitrate: 3764 kb/s
  Stream #1:0[0x1](und): Video: h264 (High) (avc1 / 0x31637661), yuv420p(tv, bt709, progressive), 1920x1080 [SAR 1:1 DAR 16:9], 3616 kb/s, 23.98 fps, 23.98 tbr, 24k tbn (default)
      Metadata:
        handler_name    : VideoHandler
        vendor_id       : [0][0][0][0]
        encoder         : Lavc60.31.102 h264_qsv
  Stream #1:1[0x2](und): Audio: aac (HE-AACv2) (mp4a / 0x6134706D), 48000 Hz, stereo, fltp, 144 kb/s (default)
      Metadata:
        handler_name    : SoundHandler
        vendor_id       : [0][0][0][0]
Stream mapping:
  Stream #0:0 (hevc) -> settb:default
  Stream #1:0 (h264) -> settb:default
  ssim:default -> Stream #0:0 (wrapped_avframe)
  Stream #0:1 -> #0:1 (aac (native) -> pcm_s16le (native))
Output #0, null, to 'pipe:':
  Metadata:
    COMPATIBLE_BRANDS: isomiso2avc1mp41
    MAJOR_BRAND     : isom
    MINOR_VERSION   : 512
    encoder         : Lavf61.7.100
  Stream #0:0: Video: wrapped_avframe, yuv420p10le(tv, bt709, progressive), 1920x1080 [SAR 1:1 DAR 16:9], q=2-31, 200 kb/s, 23.98 fps, 23.98 tbn
      Metadata:
        encoder         : Lavc61.19.100 wrapped_avframe
  Stream #0:1: Audio: pcm_s16le, 48000 Hz, stereo, s16, 1536 kb/s (default)
      Metadata:
        HANDLER_NAME    : SoundHandler
        VENDOR_ID       : [0][0][0][0]
        _STATISTICS_TAGS: BPS DURATION NUMBER_OF_FRAMES NUMBER_OF_BYTES
        BPS             : 193194
        DURATION        : 00:24:06.784000000
        NUMBER_OF_FRAMES: 67819
        NUMBER_OF_BYTES : 34938755
        _STATISTICS_WRITING_APP: mkvpropedit v94.0 ('Initiate') 64-bit
        _STATISTICS_WRITING_DATE_UTC: 2026-01-19 10:08:42
        encoder         : Lavc61.19.100 pcm_s16le
frame=  111 fps=0.0 q=-0.0 size=N/A time=00:00:04.62 bitrate=N/A speed=9.03x    frame=  301 fps=289 q=-0.0 size=N/A time=00:00:12.55 bitrate=N/A speed=12.1x    frame=  491 fps=316 q=-0.0 size=N/A time=00:00:20.47 bitrate=N/A speed=13.2x    frame=  669 fps=324 q=-0.0 size=N/A time=00:00:27.90 bitrate=N/A speed=13.5x    frame=  862 fps=333 q=-0.0 size=N/A time=00:00:35.95 bitrate=N/A speed=13.9x    frame=  989 fps=319 q=-0.0 size=N/A time=00:00:41.24 bitrate=N/A speed=13.3x    frame= 1140 fps=316 q=-0.0 size=N/A time=00:00:47.54 bitrate=N/A speed=13.2x    frame= 1291 fps=313 q=-0.0 size=N/A time=00:00:53.84 bitrate=N/A speed=  13x    frame= 1445 fps=311 q=-0.0 size=N/A time=00:01:00.26 bitrate=N/A speed=  13x    frame= 1584 fps=307 q=-0.0 size=N/A time=00:01:06.06 bitrate=N/A speed=12.8x    frame= 1720 fps=303 q=-0.0 size=N/A time=00:01:11.73 bitrate=N/A speed=12.6x    frame= 1889 fps=305 q=-0.0 size=N/A time=00:01:18.78 bitrate=N/A speed=12.7x    frame= 2047 fps=305 q=-0.0 size=N/A time=00:01:25.37 bitrate=N/A speed=12.7x    frame= 2154 fps=298 q=-0.0 size=N/A time=00:01:29.83 bitrate=N/A speed=12.4x    frame= 2305 fps=298 q=-0.0 size=N/A time=00:01:36.13 bitrate=N/A speed=12.4x    frame= 2448 fps=296 q=-0.0 size=N/A time=00:01:42.10 bitrate=N/A speed=12.4x    frame= 2577 fps=294 q=-0.0 size=N/A time=00:01:47.48 bitrate=N/A speed=12.3x    frame= 2748 fps=296 q=-0.0 size=N/A time=00:01:54.61 bitrate=N/A speed=12.3x    frame= 2915 fps=298 q=-0.0 size=N/A time=00:02:01.57 bitrate=N/A speed=12.4x    frame= 3105 fps=301 q=-0.0 size=N/A time=00:02:09.50 bitrate=N/A speed=12.5x    frame= 3279 fps=303 q=-0.0 size=N/A time=00:02:16.76 bitrate=N/A speed=12.6x    frame= 3465 fps=305 q=-0.0 size=N/A time=00:02:24.51 bitrate=N/A speed=12.7x    frame= 3656 fps=308 q=-0.0 size=N/A time=00:02:32.48 bitrate=N/A speed=12.9x    frame= 3842 fps=310 q=-0.0 size=N/A time=00:02:40.24 bitrate=N/A speed=12.9x    frame= 4027 fps=312 q=-0.0 size=N/A time=00:02:47.95 bitrate=N/A speed=  13x    frame= 4212 fps=314 q=-0.0 size=N/A time=00:02:55.67 bitrate=N/A speed=13.1x    frame= 4393 fps=316 q=-0.0 size=N/A time=00:03:03.22 bitrate=N/A speed=13.2x    frame= 4584 fps=317 q=-0.0 size=N/A time=00:03:11.19 bitrate=N/A speed=13.2x    frame= 4758 fps=318 q=-0.0 size=N/A time=00:03:18.44 bitrate=N/A speed=13.3x    frame= 4942 fps=320 q=-0.0 size=N/A time=00:03:26.12 bitrate=N/A speed=13.3x    frame= 5130 fps=321 q=-0.0 size=N/A time=00:03:33.96 bitrate=N/A speed=13.4x    frame= 5315 fps=322 q=-0.0 size=N/A time=00:03:41.67 bitrate=N/A speed=13.4x    frame= 5502 fps=323 q=-0.0 size=N/A time=00:03:49.47 bitrate=N/A speed=13.5x    frame= 5689 fps=324 q=-0.0 size=N/A time=00:03:57.27 bitrate=N/A speed=13.5x    frame= 5870 fps=325 q=-0.0 size=N/A time=00:04:04.82 bitrate=N/A speed=13.6x    frame= 6058 fps=326 q=-0.0 size=N/A time=00:04:12.66 bitrate=N/A speed=13.6x    frame= 6239 fps=327 q=-0.0 size=N/A time=00:04:20.21 bitrate=N/A speed=13.6x    frame= 6428 fps=328 q=-0.0 size=N/A time=00:04:28.10 bitrate=N/A speed=13.7x    frame= 6613 fps=329 q=-0.0 size=N/A time=00:04:35.81 bitrate=N/A speed=13.7x    frame= 6801 fps=330 q=-0.0 size=N/A time=00:04:43.65 bitrate=N/A speed=13.7x    frame= 6987 fps=331 q=-0.0 size=N/A time=00:04:51.41 bitrate=N/A speed=13.8x    frame= 7168 fps=331 q=-0.0 size=N/A time=00:04:58.96 bitrate=N/A speed=13.8x    frame= 7346 fps=331 q=-0.0 size=N/A time=00:05:06.38 bitrate=N/A speed=13.8x    frame= 7527 fps=332 q=-0.0 size=N/A time=00:05:13.93 bitrate=N/A speed=13.8x    frame= 7711 fps=332 q=-0.0 size=N/A time=00:05:21.61 bitrate=N/A speed=13.9x    frame= 7898 fps=333 q=-0.0 size=N/A time=00:05:29.41 bitrate=N/A speed=13.9x    frame= 8080 fps=333 q=-0.0 size=N/A time=00:05:37.00 bitrate=N/A speed=13.9x    frame= 8263 fps=334 q=-0.0 size=N/A time=00:05:44.63 bitrate=N/A speed=13.9x    frame= 8446 fps=334 q=-0.0 size=N/A time=00:05:52.26 bitrate=N/A speed=13.9x    frame= 8636 fps=334 q=-0.0 size=N/A time=00:06:00.19 bitrate=N/A speed=13.9x    frame= 8816 fps=335 q=-0.0 size=N/A time=00:06:07.70 bitrate=N/A speed=  14x    frame= 8992 fps=335 q=-0.0 size=N/A time=00:06:15.04 bitrate=N/A speed=  14x    frame= 9173 fps=335 q=-0.0 size=N/A time=00:06:22.59 bitrate=N/A speed=  14x    frame= 9345 fps=335 q=-0.0 size=N/A time=00:06:29.76 bitrate=N/A speed=  14x    frame= 9533 fps=336 q=-0.0 size=N/A time=00:06:37.60 bitrate=N/A speed=  14x    frame= 9709 fps=336 q=-0.0 size=N/A time=00:06:44.94 bitrate=N/A speed=  14x    frame= 9894 fps=336 q=-0.0 size=N/A time=00:06:52.66 bitrate=N/A speed=  14x    frame=10084 fps=337 q=-0.0 size=N/A time=00:07:00.58 bitrate=N/A speed=  14x    frame=10264 fps=337 q=-0.0 size=N/A time=00:07:08.09 bitrate=N/A speed=14.1x    frame=10448 fps=337 q=-0.0 size=N/A time=00:07:15.76 bitrate=N/A speed=14.1x    frame=10625 fps=337 q=-0.0 size=N/A time=00:07:23.15 bitrate=N/A speed=14.1x    frame=10819 fps=338 q=-0.0 size=N/A time=00:07:31.24 bitrate=N/A speed=14.1x    frame=11005 fps=338 q=-0.0 size=N/A time=00:07:39.00 bitrate=N/A speed=14.1x    frame=11186 fps=339 q=-0.0 size=N/A time=00:07:46.54 bitrate=N/A speed=14.1x    frame=11373 fps=339 q=-0.0 size=N/A time=00:07:54.34 bitrate=N/A speed=14.1x    frame=11558 fps=339 q=-0.0 size=N/A time=00:08:02.06 bitrate=N/A speed=14.1x    frame=11740 fps=339 q=-0.0 size=N/A time=00:08:09.65 bitrate=N/A speed=14.2x    frame=11930 fps=340 q=-0.0 size=N/A time=00:08:17.58 bitrate=N/A speed=14.2x    frame=12116 fps=340 q=-0.0 size=N/A time=00:08:25.33 bitrate=N/A speed=14.2x    frame=12286 fps=340 q=-0.0 size=N/A time=00:08:32.42 bitrate=N/A speed=14.2x    frame=12460 fps=340 q=-0.0 size=N/A time=00:08:39.68 bitrate=N/A speed=14.2x    frame=12634 fps=340 q=-0.0 size=N/A time=00:08:46.94 bitrate=N/A speed=14.2x    frame=12811 fps=340 q=-0.0 size=N/A time=00:08:54.32 bitrate=N/A speed=14.2x    frame=12996 fps=340 q=-0.0 size=N/A time=00:09:02.04 bitrate=N/A speed=14.2x    frame=13171 fps=340 q=-0.0 size=N/A time=00:09:09.34 bitrate=N/A speed=14.2x    frame=13356 fps=340 q=-0.0 size=N/A time=00:09:17.05 bitrate=N/A speed=14.2x    frame=13542 fps=341 q=-0.0 size=N/A time=00:09:24.81 bitrate=N/A speed=14.2x    frame=13722 fps=341 q=-0.0 size=N/A time=00:09:32.32 bitrate=N/A speed=14.2x    frame=13914 fps=341 q=-0.0 size=N/A time=00:09:40.32 bitrate=N/A speed=14.2x    frame=14091 fps=341 q=-0.0 size=N/A time=00:09:47.71 bitrate=N/A speed=14.2x    frame=14266 fps=341 q=-0.0 size=N/A time=00:09:55.01 bitrate=N/A speed=14.2x    frame=14447 fps=341 q=-0.0 size=N/A time=00:10:02.56 bitrate=N/A speed=14.2x    frame=14622 fps=341 q=-0.0 size=N/A time=00:10:09.85 bitrate=N/A speed=14.2x    frame=14811 fps=342 q=-0.0 size=N/A time=00:10:17.74 bitrate=N/A speed=14.2x    frame=14991 fps=342 q=-0.0 size=N/A time=00:10:25.24 bitrate=N/A speed=14.3x    frame=15151 fps=341 q=-0.0 size=N/A time=00:10:31.92 bitrate=N/A speed=14.2x    frame=15330 fps=341 q=-0.0 size=N/A time=00:10:39.38 bitrate=N/A speed=14.2x    frame=15511 fps=341 q=-0.0 size=N/A time=00:10:46.93 bitrate=N/A speed=14.2x    frame=15686 fps=341 q=-0.0 size=N/A time=00:10:54.23 bitrate=N/A speed=14.2x    frame=15878 fps=342 q=-0.0 size=N/A time=00:11:02.24 bitrate=N/A speed=14.3x    frame=16062 fps=342 q=-0.0 size=N/A time=00:11:09.91 bitrate=N/A speed=14.3x    frame=16245 fps=342 q=-0.0 size=N/A time=00:11:17.55 bitrate=N/A speed=14.3x    frame=16435 fps=342 q=-0.0 size=N/A time=00:11:25.47 bitrate=N/A speed=14.3x    frame=16613 fps=342 q=-0.0 size=N/A time=00:11:32.90 bitrate=N/A speed=14.3x    frame=16794 fps=343 q=-0.0 size=N/A time=00:11:40.44 bitrate=N/A speed=14.3x    frame=16978 fps=343 q=-0.0 size=N/A time=00:11:48.12 bitrate=N/A speed=14.3x    frame=17148 fps=343 q=-0.0 size=N/A time=00:11:55.21 bitrate=N/A speed=14.3x    frame=17319 fps=342 q=-0.0 size=N/A time=00:12:02.34 bitrate=N/A speed=14.3x    frame=17499 fps=342 q=-0.0 size=N/A time=00:12:09.85 bitrate=N/A speed=14.3x    frame=17669 fps=342 q=-0.0 size=N/A time=00:12:16.94 bitrate=N/A speed=14.3x    frame=17850 fps=342 q=-0.0 size=N/A time=00:12:24.49 bitrate=N/A speed=14.3x    frame=18036 fps=343 q=-0.0 size=N/A time=00:12:32.25 bitrate=N/A speed=14.3x    frame=18210 fps=343 q=-0.0 size=N/A time=00:12:39.50 bitrate=N/A speed=14.3x    frame=18394 fps=343 q=-0.0 size=N/A time=00:12:47.18 bitrate=N/A speed=14.3x    frame=18582 fps=343 q=-0.0 size=N/A time=00:12:55.02 bitrate=N/A speed=14.3x    frame=18767 fps=343 q=-0.0 size=N/A time=00:13:02.74 bitrate=N/A speed=14.3x    frame=18954 fps=343 q=-0.0 size=N/A time=00:13:10.53 bitrate=N/A speed=14.3x    frame=19132 fps=343 q=-0.0 size=N/A time=00:13:17.96 bitrate=N/A speed=14.3x    frame=19323 fps=343 q=-0.0 size=N/A time=00:13:25.93 bitrate=N/A speed=14.3x    frame=19505 fps=344 q=-0.0 size=N/A time=00:13:33.52 bitrate=N/A speed=14.3x    frame=19683 fps=344 q=-0.0 size=N/A time=00:13:40.94 bitrate=N/A speed=14.3x    frame=19872 fps=344 q=-0.0 size=N/A time=00:13:48.82 bitrate=N/A speed=14.3x    frame=20058 fps=344 q=-0.0 size=N/A time=00:13:56.58 bitrate=N/A speed=14.3x    frame=20237 fps=344 q=-0.0 size=N/A time=00:14:04.05 bitrate=N/A speed=14.3x    frame=20411 fps=344 q=-0.0 size=N/A time=00:14:11.30 bitrate=N/A speed=14.3x    frame=20589 fps=344 q=-0.0 size=N/A time=00:14:18.73 bitrate=N/A speed=14.3x    frame=20764 fps=344 q=-0.0 size=N/A time=00:14:26.03 bitrate=N/A speed=14.3x    frame=20950 fps=344 q=-0.0 size=N/A time=00:14:33.78 bitrate=N/A speed=14.4x    frame=21138 fps=344 q=-0.0 size=N/A time=00:14:41.63 bitrate=N/A speed=14.4x    frame=21325 fps=344 q=-0.0 size=N/A time=00:14:49.43 bitrate=N/A speed=14.4x    frame=21503 fps=344 q=-0.0 size=N/A time=00:14:56.85 bitrate=N/A speed=14.4x    frame=21695 fps=345 q=-0.0 size=N/A time=00:15:04.86 bitrate=N/A speed=14.4x    frame=21877 fps=345 q=-0.0 size=N/A time=00:15:12.45 bitrate=N/A speed=14.4x    frame=22049 fps=345 q=-0.0 size=N/A time=00:15:19.62 bitrate=N/A speed=14.4x    frame=22239 fps=345 q=-0.0 size=N/A time=00:15:27.55 bitrate=N/A speed=14.4x    frame=22421 fps=345 q=-0.0 size=N/A time=00:15:35.14 bitrate=N/A speed=14.4x    frame=22598 fps=345 q=-0.0 size=N/A time=00:15:42.52 bitrate=N/A speed=14.4x    frame=22784 fps=345 q=-0.0 size=N/A time=00:15:50.28 bitrate=N/A speed=14.4x    frame=22963 fps=345 q=-0.0 size=N/A time=00:15:57.74 bitrate=N/A speed=14.4x    frame=23146 fps=345 q=-0.0 size=N/A time=00:16:05.38 bitrate=N/A speed=14.4x    frame=23339 fps=345 q=-0.0 size=N/A time=00:16:13.43 bitrate=N/A speed=14.4x    frame=23522 fps=345 q=-0.0 size=N/A time=00:16:21.06 bitrate=N/A speed=14.4x    frame=23702 fps=345 q=-0.0 size=N/A time=00:16:28.57 bitrate=N/A speed=14.4x    frame=23890 fps=346 q=-0.0 size=N/A time=00:16:36.41 bitrate=N/A speed=14.4x    frame=24078 fps=346 q=-0.0 size=N/A time=00:16:44.25 bitrate=N/A speed=14.4x    frame=24251 fps=346 q=-0.0 size=N/A time=00:16:51.46 bitrate=N/A speed=14.4x    frame=24435 fps=346 q=-0.0 size=N/A time=00:16:59.14 bitrate=N/A speed=14.4x    frame=24626 fps=346 q=-0.0 size=N/A time=00:17:07.10 bitrate=N/A speed=14.4x    frame=24807 fps=346 q=-0.0 size=N/A time=00:17:14.65 bitrate=N/A speed=14.4x    frame=24989 fps=346 q=-0.0 size=N/A time=00:17:22.24 bitrate=N/A speed=14.4x    frame=25177 fps=346 q=-0.0 size=N/A time=00:17:30.09 bitrate=N/A speed=14.4x    frame=25358 fps=346 q=-0.0 size=N/A time=00:17:37.63 bitrate=N/A speed=14.4x    frame=25546 fps=346 q=-0.0 size=N/A time=00:17:45.48 bitrate=N/A speed=14.4x    frame=25733 fps=346 q=-0.0 size=N/A time=00:17:53.28 bitrate=N/A speed=14.4x    frame=25912 fps=346 q=-0.0 size=N/A time=00:18:00.74 bitrate=N/A speed=14.4x    frame=26092 fps=346 q=-0.0 size=N/A time=00:18:08.25 bitrate=N/A speed=14.4x    frame=26274 fps=346 q=-0.0 size=N/A time=00:18:15.84 bitrate=N/A speed=14.4x    frame=26455 fps=346 q=-0.0 size=N/A time=00:18:23.39 bitrate=N/A speed=14.4x    frame=26636 fps=346 q=-0.0 size=N/A time=00:18:30.94 bitrate=N/A speed=14.5x    frame=26825 fps=347 q=-0.0 size=N/A time=00:18:38.82 bitrate=N/A speed=14.5x    frame=26996 fps=347 q=-0.0 size=N/A time=00:18:45.95 bitrate=N/A speed=14.5x    frame=27167 fps=346 q=-0.0 size=N/A time=00:18:53.09 bitrate=N/A speed=14.4x    frame=27345 fps=346 q=-0.0 size=N/A time=00:19:00.51 bitrate=N/A speed=14.4x    frame=27523 fps=346 q=-0.0 size=N/A time=00:19:07.93 bitrate=N/A speed=14.4x    frame=27704 fps=346 q=-0.0 size=N/A time=00:19:15.48 bitrate=N/A speed=14.4x    frame=27880 fps=346 q=-0.0 size=N/A time=00:19:22.82 bitrate=N/A speed=14.4x    frame=28055 fps=346 q=-0.0 size=N/A time=00:19:30.12 bitrate=N/A speed=14.4x    frame=28242 fps=346 q=-0.0 size=N/A time=00:19:37.92 bitrate=N/A speed=14.4x    frame=28420 fps=346 q=-0.0 size=N/A time=00:19:45.35 bitrate=N/A speed=14.4x    frame=28606 fps=347 q=-0.0 size=N/A time=00:19:53.10 bitrate=N/A speed=14.5x    frame=28777 fps=346 q=-0.0 size=N/A time=00:20:00.24 bitrate=N/A speed=14.4x    frame=28946 fps=346 q=-0.0 size=N/A time=00:20:07.28 bitrate=N/A speed=14.4x    frame=29111 fps=346 q=-0.0 size=N/A time=00:20:14.17 bitrate=N/A speed=14.4x    frame=29283 fps=346 q=-0.0 size=N/A time=00:20:21.34 bitrate=N/A speed=14.4x    frame=29456 fps=346 q=-0.0 size=N/A time=00:20:28.56 bitrate=N/A speed=14.4x    frame=29629 fps=346 q=-0.0 size=N/A time=00:20:35.77 bitrate=N/A speed=14.4x    frame=29795 fps=346 q=-0.0 size=N/A time=00:20:42.69 bitrate=N/A speed=14.4x    frame=29963 fps=346 q=-0.0 size=N/A time=00:20:49.70 bitrate=N/A speed=14.4x    frame=30125 fps=345 q=-0.0 size=N/A time=00:20:56.46 bitrate=N/A speed=14.4x    frame=30302 fps=345 q=-0.0 size=N/A time=00:21:03.84 bitrate=N/A speed=14.4x    frame=30482 fps=345 q=-0.0 size=N/A time=00:21:11.35 bitrate=N/A speed=14.4x    frame=30668 fps=346 q=-0.0 size=N/A time=00:21:19.11 bitrate=N/A speed=14.4x    frame=30843 fps=345 q=-0.0 size=N/A time=00:21:26.41 bitrate=N/A speed=14.4x    frame=31021 fps=346 q=-0.0 size=N/A time=00:21:33.83 bitrate=N/A speed=14.4x    frame=31198 fps=346 q=-0.0 size=N/A time=00:21:41.21 bitrate=N/A speed=14.4x    frame=31377 fps=345 q=-0.0 size=N/A time=00:21:48.68 bitrate=N/A speed=14.4x    frame=31554 fps=345 q=-0.0 size=N/A time=00:21:56.06 bitrate=N/A speed=14.4x    frame=31734 fps=345 q=-0.0 size=N/A time=00:22:03.57 bitrate=N/A speed=14.4x    frame=31906 fps=345 q=-0.0 size=N/A time=00:22:10.74 bitrate=N/A speed=14.4x    frame=32077 fps=345 q=-0.0 size=N/A time=00:22:17.87 bitrate=N/A speed=14.4x    frame=32255 fps=345 q=-0.0 size=N/A time=00:22:25.30 bitrate=N/A speed=14.4x    frame=32442 fps=345 q=-0.0 size=N/A time=00:22:33.10 bitrate=N/A speed=14.4x    frame=32618 fps=345 q=-0.0 size=N/A time=00:22:40.44 bitrate=N/A speed=14.4x    frame=32758 fps=345 q=-0.0 size=N/A time=00:22:46.28 bitrate=N/A speed=14.4x    frame=32917 fps=345 q=-0.0 size=N/A time=00:22:52.91 bitrate=N/A speed=14.4x    frame=33095 fps=345 q=-0.0 size=N/A time=00:23:00.33 bitrate=N/A speed=14.4x    frame=33266 fps=345 q=-0.0 size=N/A time=00:23:07.46 bitrate=N/A speed=14.4x    frame=33437 fps=345 q=-0.0 size=N/A time=00:23:14.60 bitrate=N/A speed=14.4x    frame=33579 fps=344 q=-0.0 size=N/A time=00:23:20.52 bitrate=N/A speed=14.4x    frame=33728 fps=344 q=-0.0 size=N/A time=00:23:26.73 bitrate=N/A speed=14.3x    frame=33848 fps=343 q=-0.0 size=N/A time=00:23:31.74 bitrate=N/A speed=14.3x    frame=33995 fps=343 q=-0.0 size=N/A time=00:23:37.87 bitrate=N/A speed=14.3x    frame=34154 fps=343 q=-0.0 size=N/A time=00:23:44.50 bitrate=N/A speed=14.3x    frame=34302 fps=343 q=-0.0 size=N/A time=00:23:50.67 bitrate=N/A speed=14.3x    frame=34425 fps=342 q=-0.0 size=N/A time=00:23:55.80 bitrate=N/A speed=14.3x    frame=34595 fps=342 q=-0.0 size=N/A time=00:24:02.89 bitrate=N/A speed=14.3x    [Parsed_ssim_16 @ 00000263e4854180] SSIM Y:0.993823 (22.092231) U:0.993923 (22.163265) V:0.993529 (21.890433) All:0.993791 (22.069606)
[out#0/null @ 00000263d73c8a00] video:14903KiB audio:271276KiB subtitle:0KiB other streams:0KiB global headers:0KiB muxing overhead: unknown
frame=34683 fps=342 q=-0.0 Lsize=N/A time=00:24:06.57 bitrate=N/A speed=14.3x    
